<?xml version="1.0" encoding="UTF-8"?>
<svg id="Layer_2" data-name="Layer 2" xmlns="http://www.w3.org/2000/svg" viewBox="0 0 669.85 503.67">
  <defs>
    <style>
      .cls-1 {
        fill: #fff;
      }
    </style>
  </defs>
  <g id="Layer_1-2" data-name="Layer 1">
    <g>
      <path class="cls-1" d="M229.08,82.38c8.3,12.2,6.04,19.53-9.48,14.44-7.21-2.36-8.05-5.75-17.74-3.8-31.71,6.39-65.79,53.48-74.35,83.5l22.01-13.49c7.5-4.18,15.71-7.26,23.13-11.54,2.46-1.42,4.5-4.85,5.99-5.51,3.6-1.59,12.94,3.39,11.38,9.56-2.75,10.9-26.2,15.24-35.06,19.54-35.85,17.42-43.83,40.47-48.69,78.48-32.83,256.88,391.61,321.63,488.42,103.58,60.82-136.99-56.14-315.03-202.02-326.03-13.96-1.05-37.29,7.04-30.53-14.7,54.77-2.33,113.36,17.19,156.67,50.42,120.84,92.71,154.14,279.76,23.13,379.6-110.74,84.4-297.47,75.28-394.65-26.25-8.75-9.14-15.67-20.81-25.52-28.99-5.31-4.41-46.7-28.05-52.8-29.77-12.3-3.48-38.29,7.36-43.19-8.12-4.57-14.46,22.09-1.08,27.41-5.03l-16.48-20.7c-1.22-5.12,10.97-4.6,13.97-4.02,8.88,1.73,10.86,15.78,16.78,21.19,3.89,3.56,34.48,21.43,40.34,24.08,1.39.63,4.17,2.14,4.84.12-12.06-15.42-15.58-41.53-25.72-56.86-2.7-4.09-11.29-9.49-15.6-14.13-16.9-18.14-34.6-36.25-44.85-59.2-2.32-5.18-4.8-17.89-7.15-21.04-.83-1.12-12.42.8-17.14-7.52-8.88-15.63,11.7-28.71,22.98-16.38,6.85,7.49,1.08,14.73,1.93,21.16,1.2,9.09,43.59,65.5,52.49,74.73,1.33,1.38,8.35,9.23,9.94,7.38-.43-14.12-9.96-25.57-12.79-39.22s-.64-33.23-4.07-45.48c-.91-3.26-18.8-25.32-22.49-32.01-1.78-3.23-2.97-6.83-3.62-10.45-13.66,10.06-30.43-7.17-16.46-17.3,17.26-12.51,17.96,14.64,23.37,24.44,1.48,2.68,17.86,27.95,21.18,24.23-3.24-14.32,6.21-49.91-.94-60.98-1.77-2.74-7.13-4.24-8.56-9.62-4.58-17.3,18.47-6.09,18.58-21.87,4.47,12.03,6.55,6.7,12.26,9.05.84.35,8.14,6.27,8.27,6.79,1.29,7.69-15.26,12.71-16.13,14.13-.45.73-1.72,14.48-1.9,17.11-2.08,30.47.61,62.12,1.7,92.41.34,9.35-.45,18.8-.07,28.16.08,2-1.25,6.14,1.63,5.76.31-22.97,5.61-46.11,12.06-68.06,4.8-16.36,12.45-39.63,19.32-55,6.95-15.54,21.79-27.65,13.08-45.23-6.64-.96-13.85,2.46-17.81-4.49-3.62-6.35-2.75-13.75,4.37-16.69,16.91-7,15.81,10.08,19.03,21.36.65,2.27,2.28,8.68,4.46,9.55,7.12-12.21,17.21-27.8,18.11-42.34.48-7.72-2.59-5.4-5.6-8.94-10.96-12.9,16.35-28.96,20.26-8.57l-10.46,38.38,46.81-50.63,13.48-31.92c-22.35-5.58,6.87-28.99,14.01-13.19,4.04,8.94-4.01,10.86-6.22,15.26-4.16,8.29-6.45,22.05-11.08,30.95,5.22-4.15,27.04-13.29,29.84-17.22,2.03-2.85,1.21-6.26,2.3-9.26.9-2.48,4.68-5.49,4.2-7.36-.4-1.55-4.56-1.78-5.03-3.66-4.22-16.83,21.28-22.1,18.25-3.05-1.33,8.35-19.04,11.39-16.53,22.37,14.06-1.75,27.13-7.51,41.73-4.57,19.32,3.89,11.1,28.74-5.34,23.46-8.71-2.8-6.12-10.4-5.83-17.22-15.43,6.77-40.57,9.85-53.68,20.65-4.29,3.54,6.9,5.51,9.33,5.65,7.7.43,19.7-5.6,25.27-.64,6.69,5.94,3.02,16.91-4.84,19.92-7.82,2.12-14.28-11.3-15.73-17.5-5.77,5.06-16.28,3.59-24.33,5.41-8.37,1.89-18.71,6.03-24.41,12.75h30.56Z"/>
      <path class="cls-1" d="M445.6,170.97c-4.75,10.36-3.83,25.13-4.25,37.8-.07,2.22-.9,3.8-1.69,5.73,31.14-15.22,65.12-16.2,95.82.81,59.63,33.04,69.55,114.62,17.27,159.36-22.74,19.46-47.29,27.81-77.41,24.65-51.08-5.36-79.36-55.96-117.5-84.15-15.39,12.43-27.38,28.77-42.03,42.23-39.27,36.09-76.64,56.34-129.44,30.3-46.49-22.93-64.74-75.88-46.93-124.09,19.34-52.34,87.29-71.27,136.71-54.06-3.26-9.86-.76-20.38-1.67-30.52-.64-7.19-6.55-20.28-4.1-25.59,2.16-4.67,13.43-11.53,17.41-15.65,16.41-16.98,44.85-49.73,63.79-61.73,7.57-4.8,9.66-4.04,16.95.66,26.19,16.86,50.83,53.06,76.99,71.65,7.04,7.96,3.89,14.28.08,22.6ZM400.6,136.31l-39.32-39.16-4.7-1.38c-9.21,13.12-61,52.35-63.57,63.76-3.91,17.36,3.83,42.16-2.82,59.99l67.94,67.54,67.97-63.81,3.25-57.1c-2.03-9.82-21.16-22.49-28.76-29.85ZM221.24,224.85c-66.29,8.4-92.79,90.92-40.02,134.97,62.39,52.08,117.61-10.79,160.21-54.42,1.33-1.36,4.6-3.68,4.09-5.77-41.78-30.66-64.37-82.38-124.28-74.78ZM373.83,297.31c-2.34,4.06,15.03,19.36,18.72,22.96,36.16,35.23,68.15,73.5,123.52,52.41,63.74-24.27,68.1-110.41,5.64-140.28-59.25-28.34-93.18,16.28-131.57,52.34-2.46,2.31-15.8,11.68-16.31,12.58Z"/>
      <path class="cls-1" d="M647.29,185.14c24.95-5.68,31.57,40.18,7.75,42.58-19.12,1.93-28.7-37.81-7.75-42.58ZM657.62,207.82l-1.54-5.77c-6.21-3.96-17.03,10.4-14.9,12.45l16.44-6.68Z"/>
      <path class="cls-1" d="M89.04,406.46c22.67-5.21,25.58,31.44,4.48,32.66-15.25.88-23.08-28.38-4.48-32.66Z"/>
      <path class="cls-1" d="M80.82,77.68c8.79-1.62,19.32,9.41,13.46,18.57-13.88,21.71-36.3-14.36-13.46-18.57Z"/>
      <path class="cls-1" d="M612.65,421.23c14.86-2.86,15.92,22.27,4.51,24.5-18.45,3.62-17.17-22.07-4.51-24.5Z"/>
      <path class="cls-1" d="M127.07,51.35c10.36-1.01,16.71,9.82,10.32,18.64-13.78,19.01-31.85-16.55-10.32-18.64Z"/>
      <path class="cls-1" d="M196.86,67.51c-3.77-2.12-.71-10.04-1.6-13.69-.44-1.81-9.66-4.03-10.06-13.59s6.98-15.82,15.97-10.85c8.91,13.63-7.07,24.2-4.31,38.13Z"/>
      <path class="cls-1" d="M47.75,126.47c-11.28,9.27-24.68-11.88-13.39-19.13,12.38-7.96,23.59,10.76,13.39,19.13Z"/>
      <path class="cls-1" d="M302.1,20.77c-9.14,7.85-26.48-10.11-13.67-17.77,14.45-8.63,24.73,8.26,13.67,17.77Z"/>
      <path class="cls-1" d="M19.72,279.19c18.38-3.26,10.11,28.9-5.36,16.26-7.45-6.08-2.02-14.95,5.36-16.26Z"/>
      <path class="cls-1" d="M358.18,422.9c14.07-4.85,18.27,11.96,8.42,16.67-12.47,5.96-16.59-13.85-8.42-16.67Z"/>
      <path class="cls-1" d="M492.03,117.37c13.37-4,10.4,15.55,1.33,15.63-7.55.07-8.19-13.58-1.33-15.63Z"/>
      <polygon class="cls-1" points="381.86 178.18 381.86 204.61 363.68 202.96 362.03 178.17 381.86 178.18"/>
      <path class="cls-1" d="M358.73,178.18l-1.66,24.76c-5.99.04-12.33.81-17.92-1.87l-.24-21.24,19.82-1.65Z"/>
      <polygon class="cls-1" points="357.09 169.93 337.98 168.38 338.98 150.16 358.72 146.8 357.09 169.93"/>
      <path class="cls-1" d="M381.86,148.44v21.49s-18.18,0-18.18,0l.77-18.24c5.06-3.59,11.5-3.44,17.41-3.25Z"/>
    </g>
  </g>
</svg>